<svg width="193" height="24" viewBox="0 0 193 24" fill="none" xmlns="http://www.w3.org/2000/svg">
  <path d="M180.568 18.5966V4.18762H193V18.5966H190.093V6.60788H183.456V18.5966H180.568Z"
    fill="#1E1E1E" />
  <path d="M165.846 18.5966V4.18762H178.278V18.5966H175.371V6.60788H168.733V18.5966H165.846Z"
    fill="#1E1E1E" />
  <path
    d="M153.573 24C153.13 24 152.726 23.9656 152.362 23.8968C151.999 23.8343 151.727 23.7655 151.549 23.6904L152.263 21.3921C152.806 21.5297 153.288 21.5891 153.712 21.5704C154.135 21.5516 154.509 21.4015 154.833 21.1201C155.164 20.8387 155.455 20.379 155.706 19.7411L156.073 18.7842L150.497 4.18762H153.672L157.532 15.3696H157.69L161.55 4.18762H164.735L158.454 20.5197C158.163 21.2702 157.793 21.9049 157.343 22.424C156.893 22.9493 156.358 23.3433 155.736 23.606C155.114 23.8687 154.393 24 153.573 24Z"
    fill="#1E1E1E" />
  <path
    d="M136.647 24V4.18762H139.545V6.52345H139.793C139.965 6.22326 140.213 5.87617 140.537 5.48218C140.861 5.08818 141.311 4.74421 141.886 4.45028C142.462 4.15009 143.222 4 144.168 4C145.399 4 146.497 4.29393 147.462 4.8818C148.428 5.46967 149.185 6.31707 149.734 7.42401C150.29 8.53096 150.568 9.86304 150.568 11.4203C150.568 12.9775 150.293 14.3127 149.744 15.4259C149.195 16.5328 148.441 17.3865 147.482 17.9869C146.523 18.581 145.428 18.878 144.198 18.878C143.272 18.878 142.515 18.7311 141.926 18.4371C141.344 18.1432 140.887 17.7992 140.557 17.4053C140.226 17.0113 139.971 16.661 139.793 16.3546H139.614V24H136.647ZM139.555 11.3921C139.555 12.4053 139.71 13.2933 140.021 14.0563C140.332 14.8193 140.782 15.4165 141.37 15.848C141.959 16.2733 142.68 16.4859 143.533 16.4859C144.42 16.4859 145.16 16.2639 145.756 15.8199C146.351 15.3696 146.801 14.7598 147.105 13.9906C147.416 13.2214 147.571 12.3552 147.571 11.3921C147.571 10.4415 147.419 9.58787 147.115 8.83114C146.817 8.07442 146.368 7.47717 145.766 7.0394C145.17 6.60163 144.426 6.38274 143.533 6.38274C142.673 6.38274 141.946 6.59224 141.35 7.01126C140.762 7.43027 140.315 8.01501 140.011 8.76548C139.707 9.51595 139.555 10.3915 139.555 11.3921Z"
    fill="#1E1E1E" />
  <path d="M135.189 4.18762V6.60788H128.372V18.5966H125.445V4.18762H135.189Z" fill="#1E1E1E" />
  <path
    d="M111.97 18.8874C110.495 18.8874 109.225 18.5716 108.16 17.94C107.102 17.3021 106.288 16.4234 105.719 15.3039C105.151 14.1845 104.866 12.9024 104.866 11.4578C104.866 9.99437 105.157 8.70294 105.739 7.58349C106.321 6.45779 107.142 5.57911 108.2 4.94747C109.258 4.31582 110.505 4 111.94 4C113.098 4 114.13 4.20325 115.036 4.60976C115.942 5.01001 116.673 5.57286 117.229 6.29831C117.791 7.02376 118.125 7.87117 118.231 8.84052H115.344C115.185 8.1651 114.821 7.58349 114.252 7.09568C113.69 6.60788 112.936 6.36398 111.99 6.36398C111.163 6.36398 110.439 6.57036 109.817 6.98311C109.202 7.38962 108.723 7.97123 108.379 8.72795C108.035 9.47842 107.863 10.3665 107.863 11.3921C107.863 12.4428 108.031 13.3496 108.369 14.1126C108.706 14.8755 109.182 15.4665 109.797 15.8856C110.419 16.3046 111.15 16.5141 111.99 16.5141C112.552 16.5141 113.062 16.4171 113.518 16.2233C113.981 16.0231 114.368 15.7386 114.679 15.3696C114.996 15.0006 115.218 14.5566 115.344 14.0375H118.231C118.125 14.9694 117.804 15.8011 117.269 16.5328C116.733 17.2645 116.015 17.8399 115.115 18.2589C114.223 18.6779 113.174 18.8874 111.97 18.8874Z"
    fill="#1E1E1E" />
  <path
    d="M96.813 18.8874C95.3843 18.8874 94.1374 18.5779 93.0725 17.9587C92.0075 17.3396 91.1807 16.4734 90.592 15.3602C90.0033 14.247 89.709 12.9462 89.709 11.4578C89.709 9.9631 90.0033 8.65603 90.592 7.53658C91.1807 6.41714 92.0075 5.54784 93.0725 4.92871C94.1374 4.30957 95.3843 4 96.813 4C98.2418 4 99.4886 4.30957 100.554 4.92871C101.618 5.54784 102.445 6.41714 103.034 7.53658C103.623 8.65603 103.917 9.9631 103.917 11.4578C103.917 12.9462 103.623 14.247 103.034 15.3602C102.445 16.4734 101.618 17.3396 100.554 17.9587C99.4886 18.5779 98.2418 18.8874 96.813 18.8874ZM96.8229 16.5328C97.749 16.5328 98.5163 16.3014 99.1248 15.8386C99.7334 15.3759 100.183 14.7598 100.474 13.9906C100.772 13.2214 100.921 12.374 100.921 11.4484C100.921 10.5291 100.772 9.6848 100.474 8.91557C100.183 8.14009 99.7334 7.51782 99.1248 7.04878C98.5163 6.57974 97.749 6.34522 96.8229 6.34522C95.8903 6.34522 95.1164 6.57974 94.5012 7.04878C93.8927 7.51782 93.4396 8.14009 93.1419 8.91557C92.8509 9.6848 92.7054 10.5291 92.7054 11.4484C92.7054 12.374 92.8509 13.2214 93.1419 13.9906C93.4396 14.7598 93.8927 15.3759 94.5012 15.8386C95.1164 16.3014 95.8903 16.5328 96.8229 16.5328Z"
    fill="#1E1E1E" />
  <path d="M89.6436 4.18762V6.60788H82.8273V18.5966H79.9004V4.18762H89.6436Z" fill="#1E1E1E" />
  <path
    d="M64.333 24V4.18762H67.2302V6.52345H67.4782C67.6502 6.22326 67.8983 5.87617 68.2224 5.48218C68.5465 5.08818 68.9963 4.74421 69.5717 4.45028C70.1472 4.15009 70.9079 4 71.8538 4C73.0841 4 74.1821 4.29393 75.1478 4.8818C76.1135 5.46967 76.8709 6.31707 77.4199 7.42401C77.9755 8.53096 78.2534 9.86304 78.2534 11.4203C78.2534 12.9775 77.9788 14.3127 77.4298 15.4259C76.8808 16.5328 76.1268 17.3865 75.1677 17.9869C74.2085 18.581 73.1138 18.878 71.8835 18.878C70.9575 18.878 70.2001 18.7311 69.6114 18.4371C69.0293 18.1432 68.5729 17.7992 68.2422 17.4053C67.9115 17.0113 67.6568 16.661 67.4782 16.3546H67.2996V24H64.333ZM67.2401 11.3921C67.2401 12.4053 67.3955 13.2933 67.7064 14.0563C68.0173 14.8193 68.4671 15.4165 69.0558 15.848C69.6445 16.2733 70.3655 16.4859 71.2188 16.4859C72.1051 16.4859 72.8459 16.2639 73.4413 15.8199C74.0366 15.3696 74.4864 14.7598 74.7906 13.9906C75.1015 13.2214 75.257 12.3552 75.257 11.3921C75.257 10.4415 75.1048 9.58787 74.8005 8.83114C74.5029 8.07442 74.0531 7.47717 73.4512 7.0394C72.8559 6.60163 72.1117 6.38274 71.2188 6.38274C70.3589 6.38274 69.6313 6.59224 69.036 7.01126C68.4473 7.43027 68.0008 8.01501 67.6965 8.76548C67.3922 9.51595 67.2401 10.3915 67.2401 11.3921Z"
    fill="#1E1E1E" />
  <path
    d="M56.1796 18.8874C54.6781 18.8874 53.385 18.5841 52.3002 17.9775C51.222 17.3646 50.3886 16.5047 49.7999 15.3977C49.2178 14.2846 48.9268 12.9806 48.9268 11.4859C48.9268 10.01 49.2178 8.70919 49.7999 7.58349C50.3886 6.45779 51.2088 5.57911 52.2605 4.94747C53.3188 4.31582 54.5557 4 55.9713 4C56.8312 4 57.6646 4.13446 58.4716 4.40338C59.2785 4.6723 60.0028 5.09443 60.6445 5.66979C61.2861 6.24515 61.7921 6.9925 62.1625 7.91182C62.5329 8.82489 62.7181 9.93496 62.7181 11.242V12.2364H50.6035V10.1351H59.811C59.811 9.39712 59.6523 8.74359 59.3348 8.17448C59.0173 7.59912 58.5708 7.14572 57.9953 6.81426C57.4265 6.4828 56.7584 6.31707 55.9911 6.31707C55.1577 6.31707 54.4301 6.51094 53.8083 6.89869C53.1931 7.28018 52.7169 7.78049 52.3796 8.39962C52.0488 9.01251 51.8835 9.67855 51.8835 10.3977V12.0394C51.8835 13.0025 52.0621 13.8218 52.4192 14.4972C52.783 15.1726 53.2891 15.6886 53.9373 16.045C54.5855 16.3952 55.3429 16.5704 56.2094 16.5704C56.7716 16.5704 57.2843 16.4953 57.7473 16.3452C58.2103 16.1889 58.6105 15.9575 58.9478 15.651C59.2852 15.3446 59.5431 14.9662 59.7217 14.5159L62.5296 14.9944C62.3047 15.7761 61.9012 16.4609 61.3191 17.0488C60.7437 17.6304 60.0194 18.0838 59.1463 18.409C58.2797 18.728 57.2909 18.8874 56.1796 18.8874Z"
    fill="#1E1E1E" />
  <path d="M36 6.60788V4.18762H48.8587V6.60788H43.8879V18.5966H40.9907V6.60788H36Z" fill="#1E1E1E" />
  <path d="M0 12.0001L7.159 6.27283L14.2177 11.9198L7.05873 17.6471L0 12.0001Z" fill="#1E1E1E" />
  <path d="M7.94141 18.353L15.1004 12.6257L22.1591 18.2728L15.0001 24L7.94141 18.353Z"
    fill="#1E1E1E" />
  <path d="M15.7822 12.0802L22.9412 6.35303L30 12.0001L22.841 17.7273L15.7822 12.0802Z"
    fill="#1E1E1E" />
  <path d="M7.94141 5.72721L15.1004 0L22.1592 5.64702L15.0002 11.3743L7.94141 5.72721Z"
    fill="#1E1E1E" />
</svg>
